<?xml version="1.0" encoding="UTF-8" standalone="no"?>
<!-- Created with Inkscape (http://www.inkscape.org/) -->

<svg
   xmlns:dc="http://purl.org/dc/elements/1.1/"
   xmlns:cc="http://creativecommons.org/ns#"
   xmlns:rdf="http://www.w3.org/1999/02/22-rdf-syntax-ns#"
   xmlns:svg="http://www.w3.org/2000/svg"
   xmlns="http://www.w3.org/2000/svg"
   xmlns:xlink="http://www.w3.org/1999/xlink"
   xmlns:sodipodi="http://sodipodi.sourceforge.net/DTD/sodipodi-0.dtd"
   xmlns:inkscape="http://www.inkscape.org/namespaces/inkscape"
   width="297mm"
   height="210mm"
   viewBox="0 0 1052.3622 744.09448"
   id="svg2"
   version="1.1"
   inkscape:version="0.91 r13725"
   sodipodi:docname="publishing1.svg">
  <defs
     id="defs4">
    <marker
       inkscape:isstock="true"
       style="overflow:visible"
       id="marker9547"
       refX="0"
       refY="0"
       orient="auto"
       inkscape:stockid="Arrow2Lstart">
      <path
         transform="matrix(1.1,0,0,1.1,1.1,0)"
         d="M 8.7185878,4.0337352 -2.2072895,0.01601326 8.7185884,-4.0017078 c -1.7454984,2.3720609 -1.7354408,5.6174519 -6e-7,8.035443 z"
         style="fill:#000000;fill-opacity:1;fill-rule:evenodd;stroke:#000000;stroke-width:0.625;stroke-linejoin:round;stroke-opacity:1"
         id="path9549"
         inkscape:connector-curvature="0" />
    </marker>
    <marker
       inkscape:stockid="Arrow2Lstart"
       orient="auto"
       refY="0"
       refX="0"
       id="marker8547"
       style="overflow:visible"
       inkscape:isstock="true">
      <path
         inkscape:connector-curvature="0"
         id="path8549"
         style="fill:#000000;fill-opacity:1;fill-rule:evenodd;stroke:#000000;stroke-width:0.625;stroke-linejoin:round;stroke-opacity:1"
         d="M 8.7185878,4.0337352 -2.2072895,0.01601326 8.7185884,-4.0017078 c -1.7454984,2.3720609 -1.7354408,5.6174519 -6e-7,8.035443 z"
         transform="matrix(1.1,0,0,1.1,1.1,0)" />
    </marker>
    <marker
       inkscape:stockid="Arrow2Lstart"
       orient="auto"
       refY="0"
       refX="0"
       id="marker5716"
       style="overflow:visible"
       inkscape:isstock="true">
      <path
         id="path5718"
         style="fill:#000000;fill-opacity:1;fill-rule:evenodd;stroke:#000000;stroke-width:0.625;stroke-linejoin:round;stroke-opacity:1"
         d="M 8.7185878,4.0337352 -2.2072895,0.01601326 8.7185884,-4.0017078 c -1.7454984,2.3720609 -1.7354408,5.6174519 -6e-7,8.035443 z"
         transform="matrix(1.1,0,0,1.1,1.1,0)"
         inkscape:connector-curvature="0" />
    </marker>
    <marker
       inkscape:stockid="Arrow2Lstart"
       orient="auto"
       refY="0"
       refX="0"
       id="marker5464"
       style="overflow:visible"
       inkscape:isstock="true">
      <path
         id="path5466"
         style="fill:#000000;fill-opacity:1;fill-rule:evenodd;stroke:#000000;stroke-width:0.625;stroke-linejoin:round;stroke-opacity:1"
         d="M 8.7185878,4.0337352 -2.2072895,0.01601326 8.7185884,-4.0017078 c -1.7454984,2.3720609 -1.7354408,5.6174519 -6e-7,8.035443 z"
         transform="matrix(1.1,0,0,1.1,1.1,0)"
         inkscape:connector-curvature="0" />
    </marker>
    <marker
       inkscape:stockid="Arrow2Mend"
       orient="auto"
       refY="0.0"
       refX="0.0"
       id="Arrow2Mend"
       style="overflow:visible;"
       inkscape:isstock="true">
      <path
         id="path4331"
         style="fill-rule:evenodd;stroke-width:0.62500000;stroke-linejoin:round;"
         d="M 8.7185878,4.0337352 L -2.2072895,0.016013256 L 8.7185884,-4.0017078 C 6.9730900,-1.6296469 6.9831476,1.6157441 8.7185878,4.0337352 z "
         transform="scale(0.6) rotate(180) translate(0,0)" />
    </marker>
    <filter
       id="F">
      <feGaussianBlur
         id="i"
         stdDeviation="2.58594" />
    </filter>
    <radialGradient
       inkscape:collect="always"
       xlink:href="#B"
       id="radialGradient9810"
       gradientUnits="userSpaceOnUse"
       gradientTransform="matrix(4.1525479,-4.0069116,3.6854302,5.5917407,96.973581,240.68282)"
       cx="81.790001"
       cy="100.32"
       r="44.419998" />
    <linearGradient
       id="B">
      <stop
         stop-color="#eee"
         id="b" />
      <stop
         stop-color="#d2d2d2"
         id="c"
         offset="1" />
    </linearGradient>
    <radialGradient
       inkscape:collect="always"
       xlink:href="#C"
       id="radialGradient9812"
       gradientUnits="userSpaceOnUse"
       gradientTransform="matrix(2.0735729,0,0,2.4454448,658.96999,160.58114)"
       cx="89.510002"
       cy="22.254"
       r="18.278999" />
    <linearGradient
       id="C">
      <stop
         id="d" />
      <stop
         stop-opacity="0.536"
         id="e"
         offset="1" />
    </linearGradient>
    <filter
       height="1.29"
       y="-0.145"
       width="1.294"
       x="-0.147"
       id="E">
      <feGaussianBlur
         id="h"
         stdDeviation="1.81881" />
    </filter>
    <linearGradient
       inkscape:collect="always"
       xlink:href="#D"
       id="linearGradient9814"
       gradientUnits="userSpaceOnUse"
       gradientTransform="matrix(2.0054536,0,0,2.426552,676.935,180.99272)"
       x1="98.330002"
       y1="14.793"
       x2="86.82"
       y2="25.1" />
    <linearGradient
       id="D">
      <stop
         id="f" />
      <stop
         stop-opacity="0"
         stop-color="#ddd"
         id="g"
         offset="1" />
    </linearGradient>
    <linearGradient
       inkscape:collect="always"
       xlink:href="#7"
       id="linearGradient9816"
       gradientUnits="userSpaceOnUse"
       gradientTransform="matrix(2.0735729,0,0,2.5089749,676.62299,166.4707)"
       x1="25.768999"
       x2="99.32" />
    <linearGradient
       id="7">
      <stop
         stop-opacity="0.476"
         stop-color="#00c4cc"
         id="R" />
      <stop
         stop-opacity="0.661"
         stop-color="#00c4cc"
         offset="0.5"
         id="S" />
      <stop
         stop-opacity="0.767"
         stop-color="#00c4cc"
         id="T"
         offset="0.75" />
      <stop
         stop-color="#a1fbff"
         id="U"
         offset="1" />
    </linearGradient>
    <linearGradient
       x1="106.71"
       y1="448.81"
       gradientTransform="matrix(47.454763,0,0,62.17965,-2106.5291,-24543.492)"
       x2="179.67"
       gradientUnits="userSpaceOnUse"
       y2="447.95001"
       id="linearGradient7825">
      <stop
         offset="0"
         style="stop-color:#424242"
         id="stop4074-2-8" />
      <stop
         offset="1"
         style="stop-color:#999999;stop-opacity:0"
         id="stop4076-1-1" />
    </linearGradient>
    <marker
       inkscape:stockid="Arrow2Lstart"
       orient="auto"
       refY="0"
       refX="0"
       id="marker6072"
       style="overflow:visible"
       inkscape:isstock="true"
       inkscape:collect="always">
      <path
         inkscape:connector-curvature="0"
         id="path6074"
         style="fill:#000000;fill-opacity:1;fill-rule:evenodd;stroke:#000000;stroke-width:0.625;stroke-linejoin:round;stroke-opacity:1"
         d="M 8.7185878,4.0337352 -2.2072895,0.01601326 8.7185884,-4.0017078 c -1.7454984,2.3720609 -1.7354408,5.6174519 -6e-7,8.035443 z"
         transform="matrix(1.1,0,0,1.1,1.1,0)" />
    </marker>
  </defs>
  <sodipodi:namedview
     id="base"
     pagecolor="#ffffff"
     bordercolor="#666666"
     borderopacity="1.0"
     inkscape:pageopacity="0.0"
     inkscape:pageshadow="2"
     inkscape:zoom="0.90311111"
     inkscape:cx="336.83563"
     inkscape:cy="549.2126"
     inkscape:document-units="px"
     inkscape:current-layer="layer1"
     showgrid="false"
     borderlayer="true"
     inkscape:window-width="1600"
     inkscape:window-height="844"
     inkscape:window-x="0"
     inkscape:window-y="34"
     inkscape:window-maximized="1" />
  <metadata
     id="metadata7">
    <rdf:RDF>
      <cc:Work
         rdf:about="">
        <dc:format>image/svg+xml</dc:format>
        <dc:type
           rdf:resource="http://purl.org/dc/dcmitype/StillImage" />
        <dc:title></dc:title>
      </cc:Work>
    </rdf:RDF>
  </metadata>
  <g
     inkscape:label="Layer 1"
     inkscape:groupmode="layer"
     id="layer1"
     transform="translate(0,-308.26772)">
    <g
       id="g6650"
       inkscape:export-xdpi="90"
       inkscape:export-ydpi="90">
      <g
         transform="translate(-38,0)"
         id="g6626">
        <g
           id="g6579"
           transform="translate(-209.27657,-228.10039)">
          <g
             inkscape:export-ydpi="90"
             inkscape:export-xdpi="90"
             id="layer1-7"
             transform="matrix(0.14234609,0,0,0.10863683,414.52076,697.20513)">
            <path
               inkscape:connector-curvature="0"
               id="rect3286-4-0"
               style="opacity:0.84166996;fill:url(#linearGradient7825);stroke:#000000;stroke-width:23.55699921"
               d="m 859.38,456.77 0,451.77 -0.18882,-1.4428 c 0,50.92 -149.14,92.199 -333.11,92.199 -183.97,0 -331.56,-41.279 -331.56,-92.199 l -0.41709,1.4428 0,-451.77 m 665.08,-3.2406 c 0,50.92 -149.14,92.199 -333.11,92.199 -183.97,0 -333.11,-41.279 -333.11,-92.199 0,-50.92 149.14,-92.199 333.11,-92.199 183.97,0 333.11,41.279 333.11,92.199 z" />
          </g>
          <text
             xml:space="preserve"
             style="font-style:normal;font-weight:normal;font-size:15px;line-height:125%;font-family:Sans;letter-spacing:0px;word-spacing:0px;fill:#0000ff;fill-opacity:1;stroke:none;stroke-width:1px;stroke-linecap:butt;stroke-linejoin:miter;stroke-opacity:1"
             x="489.1557"
             y="780.82526"
             id="text3642"
             sodipodi:linespacing="125%"
             inkscape:export-xdpi="90"
             inkscape:export-ydpi="90"><tspan
               sodipodi:role="line"
               x="489.1557"
               y="780.82526"
               style="font-style:normal;font-variant:normal;font-weight:normal;font-stretch:normal;font-size:22.5px;font-family:'Courier 10 Pitch';-inkscape-font-specification:'Courier 10 Pitch';text-align:center;text-anchor:middle;fill:#0000ff"
               id="tspan3646">LDAP</tspan></text>
        </g>
        <g
           id="g6568"
           transform="translate(-360.97441,-140.625)">
          <g
             inkscape:export-ydpi="90"
             inkscape:export-xdpi="90"
             id="g9796"
             transform="matrix(0.48225938,0,0,0.39856916,457.44741,664.77209)">
            <path
               transform="matrix(0.96714879,0,0,0.97126149,1.5886796,2.6954315)"
               id="path9798"
               d="m 20.09375,4.1185004 0,117.9999996 88.84375,0 0,-86.15625 -0.59375,-0.625 c 0.21045,0.144391 0.41688,0.302162 0.625,0.4375 L 78.09375,4.1497504 c 0.05654,0.079597 0.09993,0.1703021 0.15625,0.25 l -0.25,-0.28125 -57.90625,0 z"
               inkscape:connector-curvature="0"
               style="opacity:0.80899999;filter:url(#F)" />
            <path
               id="path9800"
               d="m 21.022325,5.8526322 0,114.1235578 85.925125,0 0,-83.325913 -29.921165,-30.7976448 -56.00396,0 z"
               inkscape:connector-curvature="0"
               style="fill:url(#radialGradient9810)" />
            <path
               transform="matrix(1.016085,0,0,1.112241,-3.7922382,2.9647584)"
               d="m 81.698039,28.309502 0.135161,-8.351 C 81.901124,13.359407 80.956142,8.4107397 77.785779,3.9471419 L 80.362343,3.9159389 107.86271,29.53084 c -4.06802,-2.645393 -9.621189,-0.791242 -16.861906,-1.025606 l -9.302765,-0.195732 z"
               id="path9802"
               inkscape:connector-curvature="0"
               style="opacity:0.50499998;fill:url(#radialGradient9812);filter:url(#E)" />
            <path
               id="path9804"
               d="m 82.748319,29.121681 0.130721,-8.07666 C 82.94473,14.662715 80.187463,10.208951 77.12125,5.8919882 l 29.86674,30.5881668 c -3.93438,-2.558489 -8.23966,-6.942507 -15.242513,-7.169171 l -8.997158,-0.189303 z"
               inkscape:connector-curvature="0"
               style="fill:#eeeeee" />
            <path
               d="m 82.748319,29.121681 0.130721,-8.07666 C 82.94473,14.662715 80.187463,10.208951 77.12125,5.8919882 l 29.86674,30.5881668 c -3.93438,-2.558489 -8.23966,-6.942507 -15.242513,-7.169171 l -8.997158,-0.189303 z"
               id="path9806"
               inkscape:connector-curvature="0"
               style="fill:url(#linearGradient9814)" />
            <path
               id="path9808"
               d="m 60.171098,35.28277 c -1.011111,4.64e-4 -2.117224,2.34158 -2.355699,3.324196 L 51.24382,65.513122 c -0.341823,-0.173994 -0.719374,-0.310665 -1.11288,-0.373307 -1.95472,-0.311147 -4.120262,-1.119407 -5.430531,-1.986256 -0.385726,-0.255187 -0.662332,-0.502197 -0.873393,-0.718446 -0.0018,-0.729937 -0.138783,-1.473649 -0.450788,-2.176447 -0.364222,-0.816351 -1.246512,-1.372173 -2.140121,-1.34823 -0.893608,0.02388 -1.744861,0.626245 -2.064854,1.460939 -0.344709,0.903417 -0.317262,1.881241 -0.08451,2.761041 -0.01907,0.02164 -0.01374,0.02508 -0.03521,0.0493 -0.401872,0.463379 0.327481,2.457571 -0.914994,2.859408 -1.242457,0.40182 -2.334124,1.428304 -3.602278,1.9226 -1.603484,1.528253 -8.013023,1.7265 -7.267422,1.624268 1.880468,1.219888 8.264294,0.073 10.523909,-0.574252 1.504979,-0.486739 2.940463,-1.191908 4.113408,-2.282099 0.0979,0.06853 0.181501,0.15201 0.281741,0.218362 1.973855,1.305854 4.442504,2.18744 6.909677,2.620178 0.03143,0.04741 0.03624,0.04277 0.112675,0.190174 0.257643,0.496323 0.562572,1.632735 1.922876,2.535671 0.605615,0.403074 1.409753,0.490209 2.087647,0.226194 0.67791,-0.263999 1.211299,-0.872053 1.384796,-1.578545 l 5.029054,-20.581145 6.212373,36.407859 c 0.179526,1.083456 0.664857,3.819659 1.762175,3.775156 1.097319,-0.04449 1.941323,-3.440014 2.032511,-4.534431 0.357523,-4.10099 0.713998,-7.674274 0.987855,-11.242853 0.226194,-2.947677 0.816832,-5.343189 2.345479,-7.26184 1.518273,0.738061 3.369936,1.227721 5.493928,0.809996 0.707127,-0.138269 1.334916,-0.63351 1.634109,-1.288954 l 1.986256,-4.338793 c 0.975797,-0.498523 1.715044,-0.460477 3.085052,0.556439 0.974921,1.502385 1.463411,1.495618 2.282098,5.979911 0.196358,1.082823 1.275092,1.931069 2.373665,1.866538 1.60381,-0.09344 3.003413,-0.80017 3.972529,-1.669303 0.540741,-0.48497 0.959565,-0.997216 1.331228,-1.507315 0.410296,0.07283 0.756784,0.159911 0.950869,0.253573 0.06714,0.03247 0.101172,0.02628 0.133804,0.02817 -0.002,0.0103 -0.0068,0.0068 -0.0068,0.02113 -0.04349,0.594743 0.158188,1.203691 0.548127,1.654909 0.389861,0.451237 0.963106,0.739162 1.557851,0.782514 0.594755,0.04329 1.203672,-0.158365 1.654822,-0.548402 0.451187,-0.389934 0.739027,-0.963223 0.782257,-1.557967 0.14548,-2.008602 -1.288567,-3.805988 -2.683577,-4.479656 -1.394981,-0.673702 -2.786356,-0.794536 -3.965488,-0.838181 -0.789694,-0.03075 -1.581998,0.383441 -2.0074,1.049482 -0.307352,0.481209 -0.586516,0.865234 -0.852249,1.197388 -0.896907,-3.049291 -1.903587,-4.021274 -2.444105,-4.979741 -0.147715,-0.260975 -0.347749,-0.492253 -0.584608,-0.676192 -2.909768,-2.278252 -6.499663,-2.298829 -9.072023,-0.725489 -0.382788,0.234541 -0.693489,0.585005 -0.880452,0.993145 l -1.760887,3.845768 c -0.93904,-0.04517 -1.64201,-0.463568 -2.641303,-1.162176 -0.827035,-0.577034 -2.04493,-0.509721 -2.803312,0.154929 -1.800907,1.580194 -3.118304,5.480359 -3.877097,7.489339 l -4.913193,-31.6556 c -0.178289,-1.047559 -1.033183,-3.476995 -2.095787,-3.479142 z"
               inkscape:connector-curvature="0"
               style="color:#000000;fill:url(#linearGradient9816);stroke-width:20.20000076" />
          </g>
          <text
             inkscape:export-ydpi="90"
             inkscape:export-xdpi="90"
             sodipodi:linespacing="125%"
             id="text3478"
             y="661.23865"
             x="493.58478"
             style="font-style:normal;font-weight:normal;font-size:15px;line-height:125%;font-family:Sans;letter-spacing:0px;word-spacing:0px;fill:#0000ff;fill-opacity:1;stroke:none;stroke-width:1px;stroke-linecap:butt;stroke-linejoin:miter;stroke-opacity:1"
             xml:space="preserve"><tspan
               id="tspan3480"
               style="font-style:normal;font-variant:normal;font-weight:normal;font-stretch:normal;font-size:22.5px;font-family:'Courier 10 Pitch';-inkscape-font-specification:'Courier 10 Pitch';text-align:center;text-anchor:middle;fill:#0000ff"
               y="661.23865"
               x="493.58478"
               sodipodi:role="line">Flatfile</tspan></text>
        </g>
        <g
           id="g6588"
           transform="translate(-67.544291,-241.3878)">
          <g
             transform="translate(25.46752,-90.797244)"
             id="g6585">
            <rect
               style="opacity:0.49000005;fill:#c8b7b7;fill-opacity:1;fill-rule:nonzero;stroke:none;stroke-width:20;stroke-linejoin:miter;stroke-miterlimit:4;stroke-dasharray:40, 20;stroke-dashoffset:0;stroke-opacity:1"
               id="rect3340"
               width="148.37598"
               height="95.226379"
               x="421.87497"
               y="823.15454"
               rx="18.7418"
               ry="18.7418" />
          </g>
          <text
             inkscape:export-ydpi="90"
             inkscape:export-xdpi="90"
             sodipodi:linespacing="125%"
             id="text3482"
             y="756.46503"
             x="520.15961"
             style="font-style:normal;font-weight:normal;font-size:15px;line-height:125%;font-family:Sans;letter-spacing:0px;word-spacing:0px;fill:#0000ff;fill-opacity:1;stroke:none;stroke-width:1px;stroke-linecap:butt;stroke-linejoin:miter;stroke-opacity:1"
             xml:space="preserve"><tspan
               id="tspan3484"
               style="font-style:normal;font-variant:normal;font-weight:normal;font-stretch:normal;font-size:22.5px;font-family:'Courier 10 Pitch';-inkscape-font-specification:'Courier 10 Pitch';text-align:center;text-anchor:middle;fill:#0000ff"
               y="756.46503"
               x="520.15961"
               sodipodi:role="line">OCSP</tspan><tspan
               id="tspan3486"
               style="font-style:normal;font-variant:normal;font-weight:normal;font-stretch:normal;font-size:22.5px;font-family:'Courier 10 Pitch';-inkscape-font-specification:'Courier 10 Pitch';text-align:center;text-anchor:middle;fill:#0000ff"
               y="784.59003"
               x="520.15961"
               sodipodi:role="line">Compliant</tspan><tspan
               id="tspan3488"
               style="font-style:normal;font-variant:normal;font-weight:normal;font-stretch:normal;font-size:22.5px;font-family:'Courier 10 Pitch';-inkscape-font-specification:'Courier 10 Pitch';text-align:center;text-anchor:middle;fill:#0000ff"
               y="812.71503"
               x="520.15961"
               sodipodi:role="line">Server</tspan></text>
        </g>
      </g>
    </g>
    <g
       id="g6616"
       transform="translate(-469.48819,-64.22244)"
       inkscape:export-xdpi="90"
       inkscape:export-ydpi="90">
      <text
         sodipodi:linespacing="125%"
         id="text3356"
         y="430.85825"
         x="512.67224"
         style="font-style:normal;font-weight:normal;font-size:15px;line-height:125%;font-family:Sans;letter-spacing:0px;word-spacing:0px;fill:#000000;fill-opacity:1;stroke:none;stroke-width:1px;stroke-linecap:butt;stroke-linejoin:miter;stroke-opacity:1"
         xml:space="preserve"><tspan
           style="font-style:normal;font-variant:normal;font-weight:normal;font-stretch:normal;font-size:20px;font-family:'Courier 10 Pitch';-inkscape-font-specification:'Courier 10 Pitch';fill:#aa0088"
           y="430.85825"
           x="512.67224"
           id="tspan3358"
           sodipodi:role="line">Certificates</tspan></text>
      <text
         xml:space="preserve"
         style="font-style:normal;font-weight:normal;font-size:15px;line-height:125%;font-family:Sans;letter-spacing:0px;word-spacing:0px;fill:#000000;fill-opacity:1;stroke:none;stroke-width:1px;stroke-linecap:butt;stroke-linejoin:miter;stroke-opacity:1"
         x="690.94495"
         y="427.53638"
         id="text3360"
         sodipodi:linespacing="125%"><tspan
           sodipodi:role="line"
           id="tspan3362"
           x="690.94495"
           y="427.53638"
           style="font-style:normal;font-variant:normal;font-weight:normal;font-stretch:normal;font-size:20px;font-family:'Courier 10 Pitch';-inkscape-font-specification:'Courier 10 Pitch';fill:#aa0088">CRL</tspan></text>
      <text
         xml:space="preserve"
         style="font-style:normal;font-weight:normal;font-size:15px;line-height:125%;font-family:Sans;letter-spacing:0px;word-spacing:0px;fill:#000000;fill-opacity:1;stroke:none;stroke-width:1px;stroke-linecap:butt;stroke-linejoin:miter;stroke-opacity:1"
         x="745.20178"
         y="415.35626"
         id="text3364"
         sodipodi:linespacing="125%"><tspan
           sodipodi:role="line"
           id="tspan3366"
           x="745.20178"
           y="415.35626"
           style="font-style:normal;font-variant:normal;font-weight:normal;font-stretch:normal;font-size:20px;font-family:'Courier 10 Pitch';-inkscape-font-specification:'Courier 10 Pitch';fill:#aa0088">  Certificate</tspan><tspan
           id="tspan3370"
           sodipodi:role="line"
           x="745.20178"
           y="440.35626"
           style="font-style:normal;font-variant:normal;font-weight:normal;font-stretch:normal;font-size:20px;font-family:'Courier 10 Pitch';-inkscape-font-specification:'Courier 10 Pitch';fill:#aa0088">related Objects</tspan></text>
      <rect
         ry="18.7418"
         rx="18.7418"
         y="390.99609"
         x="490.52655"
         height="76.402557"
         width="452.87894"
         id="rect6614"
         style="opacity:0.49000005;fill:#999999;fill-opacity:1;fill-rule:nonzero;stroke:none;stroke-width:0.85900003;stroke-linejoin:miter;stroke-miterlimit:4;stroke-dasharray:none;stroke-dashoffset:0;stroke-opacity:1" />
    </g>
    <text
       xml:space="preserve"
       style="font-style:normal;font-weight:normal;font-size:15px;line-height:125%;font-family:Sans;letter-spacing:0px;word-spacing:0px;fill:#0000ff;fill-opacity:1;stroke:none;stroke-width:1px;stroke-linecap:butt;stroke-linejoin:miter;stroke-opacity:1;"
       x="135.08859"
       y="627.16534"
       id="text6675"
       sodipodi:linespacing="125%"
       inkscape:export-xdpi="90"
       inkscape:export-ydpi="90"><tspan
         sodipodi:role="line"
         id="tspan6677"
         x="135.08859"
         y="627.16534"
         style="font-style:normal;font-variant:normal;font-weight:normal;font-stretch:normal;font-size:17.5px;font-family:'Courier 10 Pitch';-inkscape-font-specification:'Courier 10 Pitch';fill:#0000ff;">Supportable Repositories</tspan></text>
    <path
       style="fill:none;fill-rule:evenodd;stroke:#000000;stroke-width:0.71276397px;stroke-linecap:butt;stroke-linejoin:miter;stroke-opacity:1;marker-start:url(#marker6072)"
       d="m 380.47899,462.39684 -76.9044,-58.45764 0,0"
       id="path3533"
       inkscape:connector-curvature="0"
       inkscape:export-xdpi="90"
       inkscape:export-ydpi="90" />
    <path
       style="fill:none;fill-rule:evenodd;stroke:#000000;stroke-width:0.62248939px;stroke-linecap:butt;stroke-linejoin:miter;stroke-opacity:1;marker-start:url(#marker8547)"
       d="m 235.80335,472.48031 1.41203,-67.79622 0,0"
       id="path8545"
       inkscape:connector-curvature="0"
       inkscape:export-xdpi="90"
       inkscape:export-ydpi="90" />
    <path
       inkscape:export-ydpi="90"
       inkscape:export-xdpi="90"
       inkscape:connector-curvature="0"
       id="path9545"
       d="m 88.709983,460.18227 76.904397,-58.45764 0,0"
       style="fill:none;fill-rule:evenodd;stroke:#000000;stroke-width:0.71276397px;stroke-linecap:butt;stroke-linejoin:miter;stroke-opacity:1;marker-start:url(#marker9547)" />
  </g>
</svg>
